<svg width="1200" height="310" viewBox="0 0 1200 310" fill="none" xmlns="http://www.w3.org/2000/svg">
  <defs>
    <marker id="arrow" markerWidth="8" markerHeight="8" refX="6" refY="4" orient="auto"><path d="M0 0L8 4L0 8V0Z" fill="#94A3B8"/></marker>
  </defs>
  <rect width="1200" height="310" rx="24" fill="#F8FAFC"/>
  <text x="600" y="42" text-anchor="middle" fill="#64748B" font-family="-apple-system,BlinkMacSystemFont,'Segoe UI',sans-serif" font-size="13" font-weight="600" letter-spacing="1.1">LOCAL-FIRST DATA FLOW</text>

  <g font-family="-apple-system,BlinkMacSystemFont,'Segoe UI',sans-serif">
    <rect x="54" y="104" width="190" height="104" rx="16" fill="#FFFFFF" stroke="#D8DEE8"/>
    <circle cx="84" cy="136" r="8" fill="#111827"/>
    <text x="103" y="141" fill="#111827" font-size="16" font-weight="700">Codex local data</text>
    <text x="76" y="170" fill="#64748B" font-size="13">Persisted session JSONL</text>
    <text x="76" y="191" fill="#64748B" font-size="13">No upload</text>

    <rect x="294" y="104" width="190" height="104" rx="16" fill="#FFFFFF" stroke="#D8DEE8"/>
    <circle cx="324" cy="136" r="8" fill="#0A84FF"/>
    <text x="343" y="141" fill="#111827" font-size="16" font-weight="700">Local parser</text>
    <text x="316" y="170" fill="#64748B" font-size="13">Normalize usage events</text>
    <text x="316" y="191" fill="#64748B" font-size="13">Strip full paths</text>

    <rect x="534" y="104" width="190" height="104" rx="16" fill="#FFFFFF" stroke="#D8DEE8"/>
    <circle cx="564" cy="136" r="8" fill="#5E5CE6"/>
    <text x="583" y="141" fill="#111827" font-size="16" font-weight="700">Ledger analytics</text>
    <text x="556" y="170" fill="#64748B" font-size="13">Metrics + comparisons</text>
    <text x="556" y="191" fill="#64748B" font-size="13">Rule-based insights</text>

    <rect x="798" y="76" width="164" height="78" rx="16" fill="#FFFFFF" stroke="#D8DEE8"/>
    <circle cx="827" cy="107" r="7" fill="#10B981"/>
    <text x="845" y="112" fill="#111827" font-size="15" font-weight="700">Dashboard</text>
    <text x="820" y="134" fill="#64748B" font-size="12">Static local report</text>

    <rect x="798" y="174" width="164" height="78" rx="16" fill="#FFFFFF" stroke="#D8DEE8"/>
    <circle cx="827" cy="205" r="7" fill="#F59E0B"/>
    <text x="845" y="210" fill="#111827" font-size="15" font-weight="700">Codex Plugin</text>
    <text x="820" y="232" fill="#64748B" font-size="12">Skill + local analysis</text>

    <rect x="1010" y="174" width="136" height="78" rx="16" fill="#FFFFFF" stroke="#D8DEE8" stroke-dasharray="5 5"/>
    <text x="1078" y="207" text-anchor="middle" fill="#475569" font-size="14" font-weight="700">Future MCP</text>
    <text x="1078" y="228" text-anchor="middle" fill="#94A3B8" font-size="11">Optional</text>
  </g>

  <path d="M244 156H286" stroke="#94A3B8" stroke-width="2" marker-end="url(#arrow)"/>
  <path d="M484 156H526" stroke="#94A3B8" stroke-width="2" marker-end="url(#arrow)"/>
  <path d="M724 140H770C782 140 786 124 798 116" stroke="#94A3B8" stroke-width="2" marker-end="url(#arrow)"/>
  <path d="M724 172H770C782 172 786 194 798 204" stroke="#94A3B8" stroke-width="2" marker-end="url(#arrow)"/>
  <path d="M962 213H1002" stroke="#CBD5E1" stroke-width="2" stroke-dasharray="5 5" marker-end="url(#arrow)"/>
</svg>
